<svg xmlns="http://www.w3.org/2000/svg" width="512" height="512" viewBox="0 0 398.91 398.91"><path d="M293.471 263.551c-27.202-46.021-36.594-71.208-36.888-89.286.012-.189.061-.375.061-.57 0-.222-.055-.438-.066-.654.096-13.808 5.572-23.506 12.388-35.527 32.948-58.124 13.89-92.957 13.061-94.417a9.272 9.272 0 0 0-4.089-3.78 59.66 59.66 0 0 0-13.133-4.387V9.223c0-5.092-4.132-9.223-9.224-9.223-5.086 0-9.223 4.131-9.223 9.223v24.896c-20.801 2.288-37.879 14.745-46.907 22.854-8.596-7.723-24.484-19.447-43.946-22.527V9.223A9.221 9.221 0 0 0 146.282 0a9.222 9.222 0 0 0-9.224 9.223v25.208c-5.497.867-10.89 2.438-16.084 4.885a9.265 9.265 0 0 0-4.089 3.78c-.832 1.459-19.894 36.293 13.06 94.417 6.861 12.114 12.382 21.866 12.394 35.843-.006.117-.036.222-.036.345 0 .09.024.178.024.271-.189 18.096-9.548 43.307-36.894 89.58-21.857 36.977-30.805 77.215-28.175 126.629a9.228 9.228 0 0 0 9.211 8.73h225.969a9.226 9.226 0 0 0 9.212-8.73c2.631-49.415-6.316-89.654-28.179-126.63z" fill="#333"/></svg>